<svg width="24" height="24" viewBox="0 0 24 24" fill="none" xmlns="http://www.w3.org/2000/svg">
<path d="M14.4665 19.1799C16.0113 20.0254 17.3699 19.0006 17.0744 17.2072L16.5439 13.987L18.7911 11.7065C20.0408 10.4381 19.5245 8.77622 17.7949 8.51456L14.6895 8.04474L13.3075 5.12943C12.5334 3.49641 10.8527 3.47885 10.0771 5.11494L8.6883 8.04474L5.58282 8.51456C3.85569 8.77585 3.33516 10.4363 4.58669 11.7065L6.83383 13.987L6.30335 17.2072C6.00832 18.9981 7.36428 20.0266 8.91126 19.1799L11.6889 17.6595L14.4665 19.1799Z" fill="#6C5FBC"/>
<mask id="mask0_33285_1018" style="mask-type:luminance" maskUnits="userSpaceOnUse" x="3" y="3" width="17" height="17">
<path d="M14.4665 19.1799C16.0113 20.0254 17.3699 19.0006 17.0744 17.2072L16.5439 13.987L18.7911 11.7065C20.0408 10.4381 19.5245 8.77622 17.7949 8.51456L14.6895 8.04474L13.3075 5.12943C12.5334 3.49641 10.8527 3.47885 10.0771 5.11494L8.6883 8.04474L5.58282 8.51456C3.85569 8.77585 3.33516 10.4363 4.58669 11.7065L6.83383 13.987L6.30335 17.2072C6.00832 18.9981 7.36428 20.0266 8.91126 19.1799L11.6889 17.6595L14.4665 19.1799Z" fill="white"/>
</mask>
<g mask="url(#mask0_33285_1018)">
</g>
</svg>
